<?xml version="1.0" encoding="utf-8"?>
<!-- Generator: Adobe Illustrator 24.1.3, SVG Export Plug-In . SVG Version: 6.00 Build 0)  -->
<svg version="1.1" id="Calque_1" xmlns="http://www.w3.org/2000/svg" xmlns:xlink="http://www.w3.org/1999/xlink" x="0px" y="0px"
	 viewBox="0 0 1080 1080" style="enable-background:new 0 0 1080 1080;" xml:space="preserve">
<style type="text/css">
	.st0{fill-rule:evenodd;clip-rule:evenodd;fill:none;stroke:#000000;stroke-width:0.25;stroke-miterlimit:10;}
</style>
<path class="st0" d="M725.35,514.91c-1.4,0.62-3.25,1.86-4.96,2c-1.58,0.13-2.71,0.01-4.04,0c-107.66,0-215.34,0-323,0
	c1.33-2.33,2.67-4.67,4-7c20.55,0,41.11,0,61.66,0c22.99,0,45.98,0,68.97,0c33.12,0,66.25,0,99.37,0c21.33,0,42.67,0,64,0
	c10.33-0.33,20.67-0.67,31-1c4.93-1.5,9.63-4.04,14-6C735.17,507.71,729.5,513.08,725.35,514.91z"/>
<path class="st0" d="M400.69,559.53c4.37,1.96,9.07,4.5,14,6c10.33,0.33,20.67,0.67,31,1c21.33,0,42.67,0,64,0
	c33.12,0,66.24,0,99.37,0c22.99,0,45.98,0,68.97,0c20.56,0,41.11,0,61.66,0c1.33,2.33,2.67,4.67,4,7c-107.66,0-215.34,0-323,0
	c-1.33,0.01-2.46,0.13-4.04,0c-1.71-0.14-3.56-1.38-4.96-2C407.55,569.7,401.88,564.33,400.69,559.53z"/>
</svg>
