<?xml version="1.0" standalone="no"?>
<!DOCTYPE svg PUBLIC "-//W3C//DTD SVG 20010904//EN"
 "http://www.w3.org/TR/2001/REC-SVG-20010904/DTD/svg10.dtd">
<svg version="1.0" xmlns="http://www.w3.org/2000/svg"
 width="624.000000pt" height="179.000000pt" viewBox="0 0 624.000000 179.000000"
 preserveAspectRatio="xMidYMid meet">

<g transform="translate(0.000000,179.000000) scale(0.100000,-0.100000)"
fill="#000000" stroke="none">
<path d="M3636 1783 c-3 -4 -6 -235 -6 -514 l0 -507 -1200 -1 -1200 -2 0 321
c0 207 -4 320 -10 320 -6 0 -10 -113 -10 -320 l0 -320 -605 0 c-397 0 -605 -3
-605 -10 0 -7 208 -10 605 -10 l605 0 0 -175 0 -175 -605 0 c-397 0 -605 -3
-605 -10 0 -7 144 -10 412 -10 l412 0 -47 -29 c-50 -32 -87 -91 -87 -137 0
-49 38 -111 87 -143 l46 -31 -411 0 c-264 0 -412 -4 -412 -10 0 -6 750 -11
2157 -12 2879 -4 4073 0 4073 12 0 7 -313 10 -892 10 -657 1 -888 4 -873 12
68 37 108 100 105 167 -2 25 -2 72 -1 104 l1 57 830 0 c547 0 830 3 830 10 0
7 -283 10 -830 10 l-830 0 0 175 0 175 830 0 c547 0 830 3 830 10 0 7 -283 10
-830 10 l-830 0 -2 321 -3 322 -424 178 c-518 218 -497 209 -505 202z m470
-209 l444 -187 0 -313 0 -314 -450 0 -450 0 0 500 c0 275 3 500 6 500 3 0 206
-84 450 -186z m-930 -866 c-118 -97 -72 -243 95 -302 40 -14 -46 -15 -998 -16
l-1043 0 0 175 0 175 992 0 993 0 -39 -32z m454 -5 l0 -37 -32 30 c-18 16 -37
32 -42 36 -6 5 9 8 32 8 42 0 42 0 42 -37z m920 -138 l0 -175 -552 0 c-511 1
-550 2 -509 16 107 38 165 107 160 192 -1 26 -2 68 -1 95 l2 47 450 0 450 0 0
-175z m-3340 -237 l0 -42 -27 26 c-16 14 -41 33 -58 41 l-30 16 58 1 57 0 0
-42z m2929 22 c-44 -23 -96 -81 -105 -116 -9 -33 1 -90 21 -120 9 -14 34 -38
57 -54 l41 -30 -1528 0 -1529 0 45 29 c64 40 91 88 89 154 -2 28 -2 76 -1 105
l1 52 1473 0 c1453 -1 1472 -1 1436 -20z m411 -27 l0 -47 -32 31 c-18 17 -46
38 -63 46 l-30 16 63 1 62 0 0 -47z"/>
</g>
</svg>
