<?xml version="1.0" standalone="no"?>
<!DOCTYPE svg PUBLIC "-//W3C//DTD SVG 20010904//EN"
 "http://www.w3.org/TR/2001/REC-SVG-20010904/DTD/svg10.dtd">
<svg version="1.0" xmlns="http://www.w3.org/2000/svg"
 width="624.000000pt" height="179.000000pt" viewBox="0 0 624.000000 179.000000"
 preserveAspectRatio="xMidYMid meet">

<g transform="translate(0.000000,179.000000) scale(0.100000,-0.100000)"
fill="#000000" stroke="none">
<path d="M2631 1596 l-453 -191 7 -322 7 -323 -1091 0 c-717 0 -1091 -3 -1091
-10 0 -6 374 -11 1088 -12 l1087 -3 3 -172 2 -173 -1090 0 c-720 0 -1090 -3
-1090 -10 0 -7 308 -10 903 -10 856 -1 900 -2 871 -18 -51 -29 -70 -46 -93
-82 -43 -72 -19 -163 58 -211 l45 -29 -892 0 c-576 0 -892 -3 -892 -10 0 -12
1203 -16 4068 -12 1403 1 2162 6 2162 12 0 6 -150 10 -412 10 l-412 0 45 28
c64 41 84 75 85 147 1 33 2 84 3 113 l1 52 345 0 c223 0 345 4 345 10 0 6
-122 10 -345 10 l-345 0 0 175 0 175 345 0 c223 0 345 4 345 10 0 6 -122 10
-345 10 l-345 0 0 320 c0 207 -4 320 -10 320 -6 0 -10 -113 -10 -320 l0 -320
-1225 0 -1225 0 0 499 c0 323 4 502 10 506 12 7 14 26 3 24 -5 -1 -212 -87
-462 -193z m429 -339 l0 -493 -430 -2 -430 -2 2 317 3 317 420 177 c231 98
423 178 428 178 4 1 7 -221 7 -492z m-453 -548 c-47 -39 -67 -77 -67 -129 0
-78 53 -137 153 -171 l52 -18 -266 -1 -266 0 -5 168 c-3 92 -3 170 -1 175 2 4
102 7 221 7 l217 0 -38 -31z m453 -11 c-1 -34 -3 -39 -11 -26 -5 10 -27 29
-47 43 l-37 25 48 0 47 0 0 -42z m2470 -133 l0 -175 -1327 1 c-731 0 -1317 4
-1303 8 124 38 201 137 172 221 -7 18 -7 30 -1 30 5 0 9 20 9 45 l0 45 1225 0
1225 0 0 -175z m-3340 -242 l0 -47 -27 26 c-16 14 -44 35 -63 47 l-35 21 63 0
62 0 0 -47z m2904 15 c-112 -77 -112 -199 0 -275 l48 -33 -1527 0 -1528 0 39
29 c22 15 49 41 59 57 20 28 21 38 24 197 l1 57 1466 0 1466 0 -48 -32z m436
-15 c-1 -39 -3 -45 -11 -30 -6 10 -32 32 -57 48 l-46 29 57 0 57 0 0 -47z"/>
</g>
</svg>
